<?xml version="1.0" encoding="utf-8"?>
<!-- Generator: Adobe Illustrator 24.1.0, SVG Export Plug-In . SVG Version: 6.00 Build 0)  -->
<svg version="1.1" id="Layer_1" xmlns="http://www.w3.org/2000/svg" xmlns:xlink="http://www.w3.org/1999/xlink" x="0px" y="0px"
	 viewBox="0 0 60 60" style="enable-background:new 0 0 60 60;" xml:space="preserve">
<style type="text/css">
	.st0{fill:none;stroke:#FFFFFF;stroke-width:3;stroke-linecap:round;stroke-miterlimit:10;}
</style>
<path class="st0" d="M56.2,16.1c0.2,0.1,0.3,0.3,0.5,0.5c0.7,0.8,1.1,1.8,1.1,3v34c0,2.5-2,4.5-4.5,4.5H6.7c-2.5,0-4.5-2-4.5-4.5
	v-34c0-1.7,1-3.2,2.4-4"/>
<path class="st0" d="M4.1,15.8L27.8,3.9c1.4-0.8,3.1-0.8,4.5,0l23.7,11.9"/>
<path class="st0" d="M56.9,29.3l-17.3,9.8c-0.2,0.1-0.4,0.2-0.6,0.2H21c-0.2,0-0.4-0.1-0.6-0.2L3.1,29.3"/>
</svg>
