<?xml version="1.0" encoding="utf-8"?>
<!-- Generator: Adobe Illustrator 24.1.0, SVG Export Plug-In . SVG Version: 6.00 Build 0)  -->
<svg version="1.1" id="Layer_1" xmlns="http://www.w3.org/2000/svg" xmlns:xlink="http://www.w3.org/1999/xlink" x="0px" y="0px"
	 viewBox="0 0 60 60" style="enable-background:new 0 0 60 60;" xml:space="preserve">
<style type="text/css">
	.st0{fill:#FFFFFF;}
</style>
<g>
	<path class="st0" d="M28.6,43.2c-6.8,0-12.5-5.6-12.5-12.4c0-7,5.6-12.5,12.5-12.5c3.4,0,6.3,1.3,8.6,3.5c2.3,2.1,3.7,5.2,3.8,8.4
		v9c0,3.5,2.4,4.2,4.5,4.2c6,0,7.3-8.3,7.3-13.3C52.9,17.3,42,8.1,29.3,8.1S6.7,18.4,6.7,31.1c0,12.7,9.8,22.7,22.5,22.7h0.5
		c1.2,0,2.3,1.1,2.3,2.3c0,1.2-1.1,2.1-2.3,2.1h-0.5c-15.1,0-26.9-12-26.9-27.1C2.4,16,14.1,3.7,29.3,3.7s28.1,11.1,28.1,26.3
		c0,7.3-3,17.7-11.8,17.7c-4.6,0-8.9-2-8.9-8.9v-8c0-4.5-3.7-8.1-8.1-8.1c-4.4,0-8.1,3.5-8.1,8.1c0,4.5,3.7,7.9,8.1,7.9
		c0.8,0,1.7-0.1,2.5-0.4c1.2-0.4,2.3-0.2,2.8,0.8c0.4,1.1,0,2.5-1.1,3C31.2,43.1,29.4,43.2,28.6,43.2z"/>
</g>
</svg>
