<?xml version="1.0" encoding="utf-8"?>
<!-- Generator: Adobe Illustrator 24.1.0, SVG Export Plug-In . SVG Version: 6.00 Build 0)  -->
<svg version="1.1" id="Layer_1" xmlns="http://www.w3.org/2000/svg" xmlns:xlink="http://www.w3.org/1999/xlink" x="0px" y="0px"
	 viewBox="0 0 346 445" style="enable-background:new 0 0 346 445;" xml:space="preserve">
<style type="text/css">
	.st0{fill:#ADF851;}
	.st1{fill:none;stroke:#ADF851;stroke-width:3;stroke-miterlimit:10;}
	.st2{fill:none;}
</style>
<path class="st0" d="M124.3,407.2h0.5v-0.3L124.3,407.2z M206.9,427.2L206.9,427.2 M237.8,407.3l-30.9,19.9 M93,427.5h-0.5
	 M124.8,406.9L124.8,406.9"/>
<polygon class="st0" points="337.2,408.8 303.6,428 206.9,427.2 206.8,427.3 124.8,293.7 124.8,233.2 237.8,407.2 "/>
<polygon class="st0" points="45.4,13.7 45.3,13.7 45.4,128.5 45.4,407.5 14.4,427.5 14.4,33.5 44,12.2 "/>
<polygon class="st0" points="126.3,407.9 92.5,427.5 14.5,427.5 45.5,407.5 45.5,128.5 45.7,407.2 "/>
<path class="st1" d="M242.9,264.7c22.3-8.8,33.3-17,47.1-36.4c16.6-23.4,24.9-48.4,24.9-75V143c0-43.5-14.1-65.4-38.1-89.3
	c-23.8-23.5-59.2-40-103-40H45.5v114.8l0.2,278.8h78.6l0.5-0.3V233.2l113,174.1h96.7L242.9,264.7z M181.4,200.9H155v-0.2h-30.5V92.1
	H169c19.1,0,38.6,5.6,48.8,15.6c10.4,10.9,15.6,23.5,15.6,37.8C233.4,175.5,210.2,200.9,181.4,200.9z"/>
<path class="st2" d="M14.5,33.5"/>
<image style="overflow:visible;" width="3360" height="2100" xlink:href="../../../Desktop/Screen Shot 2020-03-29 at 12.28.26 PM.png"  transform="matrix(0.5 0 0 0.5 -977 533)">
</image>
</svg>
